<svg width="322" height="343" viewBox="0 0 322 343" fill="none" xmlns="http://www.w3.org/2000/svg">
<path d="M14.0055 299.023L0.0311432 317.998L23.5629 335.51C25.1182 333.177 16.2763 319.584 16.2763 319.584L25.7325 307.795L14.0055 299.023Z" fill="#455A64"/>
<path d="M9.79072 313.161C9.514 313.06 9.20975 313.065 8.93683 313.176C8.6639 313.287 8.44169 313.495 8.31318 313.76C8.20388 314.034 8.20337 314.339 8.31176 314.614C8.42016 314.889 8.62927 315.111 8.89642 315.237C9.18962 315.34 9.51065 315.332 9.79775 315.212C10.0849 315.093 10.3178 314.872 10.4517 314.592C10.5376 314.294 10.5046 313.974 10.3596 313.7C10.2145 313.426 9.96878 313.218 9.67407 313.122" fill="white"/>
<path d="M0 318.044L1.48531 316.007L23.4695 333.706C23.4695 333.706 24.1694 334.951 23.4695 335.596L0 318.044Z" fill="#263238"/>
<path d="M16.7895 319.755C16.7039 319.872 16.0896 319.499 15.2342 319.444C14.3788 319.39 13.7333 319.654 13.6789 319.53C13.6244 319.405 14.2777 318.869 15.2886 318.946C16.2996 319.024 16.8517 319.67 16.7895 319.755Z" fill="#263238"/>
<path d="M18.4614 322.617C18.3992 322.749 17.7615 322.57 17.0072 322.765C16.2529 322.959 15.7629 323.395 15.6463 323.301C15.5296 323.208 15.9496 322.524 16.8905 322.283C17.8315 322.041 18.5392 322.508 18.4614 322.617Z" fill="#263238"/>
<path d="M17.6605 326.614C17.5361 326.56 17.8082 325.836 18.5703 325.455C19.3324 325.074 20.0556 325.199 20.0323 325.331C20.009 325.463 19.4258 325.549 18.8114 325.899C18.1971 326.249 17.7849 326.684 17.6605 326.614Z" fill="#263238"/>
<path d="M18.6092 316.831C18.477 316.901 18.0726 316.349 17.3883 315.914C16.7039 315.478 16.0507 315.299 16.0585 315.136C16.0663 314.973 16.8361 314.942 17.6604 315.47C18.4848 315.999 18.7336 316.785 18.6092 316.831Z" fill="#263238"/>
<path d="M70.8984 219.594C71.3183 221.973 71.9871 242.216 72.4148 252.893C72.8425 263.57 71.7772 268.819 70.5562 271.214C69.3353 273.609 23.2906 307.538 19.7834 315.665L8.11864 306.263C8.11864 306.263 25.227 275.553 32.5213 269.97C39.8157 264.386 53.8523 259.262 53.8523 259.262L49.8629 200.79L68.9854 199.748L70.8984 219.594Z" fill="#263238"/>
<path d="M28.1042 317.788L27.902 341.327L57.2272 341.732C57.095 338.932 42.0008 333.092 42.0008 333.092L42.7785 317.998L28.1042 317.788Z" fill="#455A64"/>
<path d="M32.9491 331.731C32.6661 331.813 32.4232 331.996 32.2669 332.246C32.1105 332.495 32.0516 332.794 32.1015 333.084C32.1736 333.37 32.3522 333.618 32.6007 333.777C32.8492 333.936 33.1491 333.994 33.439 333.94C33.7378 333.851 33.9934 333.655 34.157 333.389C34.3205 333.124 34.3805 332.808 34.3255 332.501C34.2213 332.21 34.0081 331.971 33.7309 331.835C33.4537 331.698 33.1343 331.675 32.8402 331.77" fill="white"/>
<path d="M27.8944 341.413V338.885L56.0843 340.347C56.0843 340.347 57.3752 340.946 57.2119 341.864L27.8944 341.413Z" fill="#263238"/>
<path d="M42.452 332.983C42.452 333.131 41.7288 333.185 41.0211 333.636C40.3134 334.087 39.9246 334.678 39.7924 334.624C39.6602 334.569 39.8857 333.737 40.7567 333.209C41.6277 332.68 42.5142 332.851 42.452 332.983Z" fill="#263238"/>
<path d="M45.5626 334.328C45.5626 334.468 44.9638 334.702 44.4739 335.3C43.984 335.899 43.8285 336.545 43.6963 336.529C43.5641 336.514 43.4707 335.713 44.1006 334.974C44.7305 334.235 45.5626 334.165 45.5626 334.328Z" fill="#263238"/>
<path d="M47.2346 338.007C47.1024 338.007 46.9157 337.315 47.289 336.537C47.6623 335.759 48.3466 335.456 48.4011 335.573C48.4555 335.689 48.0433 336.109 47.74 336.755C47.4368 337.4 47.3746 337.991 47.2346 338.007Z" fill="#263238"/>
<path d="M42.2654 329.523C42.2032 329.655 41.55 329.445 40.7101 329.523C39.8702 329.6 39.2637 329.81 39.1548 329.686C39.0459 329.561 39.6914 329.064 40.6479 329.025C41.6044 328.986 42.3354 329.414 42.2654 329.523Z" fill="#263238"/>
<path d="M73.0136 197.33C73.0136 198.706 75.2455 233.553 63.8529 258.764C63.8529 258.764 59.9102 266.649 59.187 270.094C58.4638 273.539 43.7273 330.681 43.7273 330.681L26.6967 330.059C26.6967 330.059 23.975 301.434 26.6967 284.862C29.4185 268.29 34.4732 270.234 34.4732 259.534C34.4732 248.833 31.9303 226.647 31.9303 226.647C31.9303 226.647 28.2132 220.589 26.9456 208.839C25.9113 199.297 30.4061 189.071 30.4061 189.071L34.8465 181.209L72.4148 179.241L73.0136 197.33Z" fill="#263238"/>
<path d="M73.0137 197.33C73.0137 197.33 73.0137 196.925 73.0137 196.14C73.0137 195.354 72.967 194.188 72.9359 192.656C72.8659 189.584 72.7493 185.058 72.6093 179.21V179.125H72.516L34.9477 181.038H34.8699L34.8232 181.108C33.4468 183.55 31.9304 186.217 30.3751 188.97C29.2183 191.76 28.3152 194.649 27.6766 197.602C26.9711 200.71 26.6551 203.895 26.7357 207.081C26.9724 210.409 27.4927 213.71 28.291 216.95C29.0611 220.351 30.2714 223.637 31.8915 226.725V226.647C32.5369 232.448 33.1357 238.46 33.6412 244.65C33.8901 247.76 34.1078 250.871 34.2633 254.067C34.3411 255.622 34.4033 257.255 34.4111 258.865C34.4111 259.643 34.4111 260.475 34.3644 261.276C34.3091 262.079 34.2104 262.879 34.0689 263.671C33.7506 265.267 33.1866 266.805 32.397 268.228C31.6193 269.682 30.8417 271.121 30.064 272.637C28.6556 275.715 27.6293 278.953 27.0079 282.28C25.6547 288.968 25.3826 295.92 25.3048 302.927C25.3048 312.173 25.7403 321.256 26.5024 330.036V330.222H26.6812L43.7118 330.844H43.8751L43.914 330.681C48.8521 311.543 53.4558 293.657 57.5151 277.575L58.9849 271.626C59.2415 270.639 59.4048 269.659 59.7081 268.726C60.0114 267.793 60.3535 266.867 60.7112 265.965C61.4422 264.161 62.2666 262.411 63.0442 260.708L63.6508 259.441C63.8662 259.027 64.0583 258.601 64.2262 258.165C64.5762 257.302 64.9261 256.454 65.2761 255.607C67.6945 249.335 69.4942 242.842 70.6496 236.22C72.3151 226.786 73.1736 217.228 73.2159 207.649C73.2625 200.946 72.9904 197.306 72.9904 197.306C72.9904 197.306 72.9904 197.532 72.9904 197.975C72.9904 198.418 72.9904 199.095 73.037 199.966C73.0837 201.716 73.1148 204.297 73.037 207.649C72.9651 217.22 72.0989 226.769 70.4474 236.197C69.2653 242.797 67.4422 249.267 65.0039 255.513L63.9618 258.056C63.7907 258.492 63.5963 258.904 63.3864 259.324C63.1764 259.744 62.9742 260.172 62.772 260.599C61.9944 262.302 61.1701 264.052 60.4391 265.864C60.0736 266.774 59.7236 267.699 59.4203 268.648C59.1171 269.597 58.9382 270.6 58.6894 271.564C58.1994 273.524 57.7095 275.499 57.204 277.513C53.0747 293.579 48.4788 311.465 43.5563 330.603L43.7585 330.456L26.7279 329.826L26.9301 330.012C26.1524 321.248 25.7014 312.173 25.7325 302.942C25.8103 295.944 26.0824 289.022 27.4278 282.381C28.0473 279.085 29.063 275.876 30.4528 272.824C31.1527 271.323 32.0081 269.9 32.7858 268.422C33.5702 266.96 34.1261 265.387 34.4344 263.757C34.5819 262.946 34.6831 262.129 34.7377 261.307C34.7377 260.529 34.8155 259.674 34.7844 258.873C34.7844 257.255 34.7144 255.646 34.6366 254.051C34.4811 250.863 34.2556 247.721 33.9989 244.626C33.4805 238.405 32.8921 232.399 32.2337 226.608V226.561C30.6131 223.513 29.3974 220.266 28.6176 216.903C27.8238 213.687 27.3035 210.409 27.0623 207.105C26.9785 203.947 27.2868 200.792 27.9799 197.711C28.6065 194.788 29.4887 191.925 30.6162 189.156V189.156L35.0488 181.287L34.9243 181.364L72.4927 179.335L72.3916 179.249C72.5782 185.089 72.7182 189.615 72.8115 192.687C72.8659 194.242 72.9048 195.378 72.9359 196.171C72.967 196.964 73.0137 197.33 73.0137 197.33Z" fill="#455A64"/>
<path d="M60.7968 125.972C60.7968 125.972 50.6873 124.184 51.6283 137.194C52.2193 144.97 54.5056 158.315 55.7732 166.83C56.2087 169.777 57.173 175.05 61.069 178.145L88.9867 197.462L97.7974 186.925L72.8659 163.183L68.9777 139.698L60.7968 125.972Z" fill="#455A64"/>
<path d="M61.9865 79.08C63.5889 80.3703 64.8567 82.0278 65.6825 83.9122C66.5083 85.7965 66.8676 87.8521 66.7302 89.9049C66.5747 91.8957 66.0225 94.1586 67.3212 95.675C68.6199 97.1915 71.1084 97.137 72.3371 98.6768C73.7757 100.496 72.5703 103.203 73.1147 105.466C73.3922 106.523 74.0366 107.447 74.9327 108.072C75.8289 108.697 76.9183 108.984 78.0061 108.88C75.454 110.968 72.376 112.313 69.1098 112.768L66.5591 109.587C67.5078 110.707 67.2512 112.488 66.3414 113.631C65.353 114.695 64.0785 115.451 62.6709 115.808C59.3207 116.839 55.7779 117.083 52.3182 116.52C48.8585 115.958 45.5752 114.604 42.7241 112.566" fill="#263238"/>
<path d="M24.636 96.6315C25.1337 95.0762 25.9736 93.6998 26.308 92.1367C27.0234 88.7695 25.3826 84.9746 27.0156 81.9417C28.1821 79.7876 30.655 78.73 33.0035 78.0068C35.352 77.2836 37.8561 76.677 39.6058 74.9584C40.8811 73.6986 41.6121 71.9567 42.8875 70.6969C44.7072 68.8927 47.3979 68.2784 49.9486 68.1229C52.5824 67.8683 55.2373 68.2996 57.6551 69.3749C58.8557 69.9226 59.9106 70.7451 60.7346 71.7758C61.5587 72.8065 62.1287 74.0166 62.3987 75.3084C62.6009 76.5681 62.4454 77.8979 62.8498 79.1189C63.2853 80.4564 64.3351 81.4985 64.9883 82.7505C65.6426 84.0951 65.8318 85.6188 65.5264 87.0826C65.221 88.5464 64.4382 89.8673 63.3008 90.838L45.2749 114.121C41.4877 115.552 32.3114 113.825 29.3875 111.01C26.4635 108.195 23.384 100.481 24.636 96.6315Z" fill="#263238"/>
<path d="M62.8264 87.883C62.0488 82.595 58.0594 76.3504 52.8103 77.3147L36.6041 82.7583C35.0488 83.0538 36.153 85.6589 36.3085 87.2686L39.8313 123.818C39.8313 123.818 37.6383 125.374 36.8607 125.078C36.8164 125.063 36.7684 125.061 36.7234 125.074C36.6783 125.087 36.6385 125.114 36.6094 125.151C36.5803 125.188 36.5634 125.233 36.561 125.28C36.5587 125.326 36.571 125.373 36.5963 125.412C38.5637 128.251 47.7322 140.592 57.2274 136.805C59.3426 135.957 57.0018 129.293 57.2274 126.828L56.9474 120.521C56.7374 117.302 56.6363 115.98 56.6363 116.011C56.6363 116.042 63.3397 114.362 64.0629 105.396C64.4284 100.955 63.6508 93.7542 62.8264 87.883Z" fill="#FFBF9D"/>
<path d="M61.6988 96.0172C61.7229 96.3132 61.6308 96.607 61.4421 96.8363C61.2534 97.0656 60.9829 97.2125 60.6878 97.2459C60.5441 97.269 60.3971 97.263 60.2557 97.2283C60.1144 97.1936 59.9814 97.1309 59.8646 97.0439C59.7479 96.9568 59.6498 96.8473 59.5761 96.7217C59.5025 96.5961 59.4548 96.457 59.4358 96.3127C59.4117 96.0167 59.5037 95.7229 59.6924 95.4936C59.8811 95.2643 60.1516 95.1174 60.4467 95.084C60.5905 95.0609 60.7374 95.0669 60.8788 95.1016C61.0202 95.1363 61.1532 95.199 61.2699 95.286C61.3867 95.373 61.4848 95.4826 61.5584 95.6082C61.6321 95.7338 61.6798 95.8728 61.6988 96.0172V96.0172Z" fill="#263238"/>
<path d="M50.6562 96.7093C50.6824 97.0045 50.5922 97.2983 50.4047 97.5279C50.2173 97.7575 49.9475 97.9047 49.653 97.938C49.5094 97.96 49.3628 97.9532 49.2218 97.9181C49.0809 97.8829 48.9483 97.8201 48.8318 97.7333C48.7153 97.6465 48.6172 97.5374 48.5433 97.4123C48.4693 97.2872 48.4209 97.1487 48.401 97.0048C48.3769 96.7088 48.4689 96.4151 48.6576 96.1857C48.8463 95.9564 49.1168 95.8095 49.4119 95.7761C49.5552 95.7531 49.7017 95.7591 49.8426 95.7939C49.9835 95.8287 50.116 95.8915 50.2321 95.9786C50.3483 96.0657 50.4456 96.1753 50.5185 96.3008C50.5913 96.4264 50.6382 96.5653 50.6562 96.7093V96.7093Z" fill="#263238"/>
<path d="M62.1032 92.2689C61.9787 92.4789 60.9211 91.8101 59.5991 92.0045C58.2771 92.1989 57.4295 93.101 57.2662 92.9377C57.1029 92.7744 57.2662 92.5022 57.6472 92.0901C58.1257 91.5529 58.7799 91.2039 59.4925 91.1055C60.2051 91.0072 60.9294 91.166 61.5355 91.5535C61.971 91.8568 62.1654 92.1756 62.1032 92.2689Z" fill="#263238"/>
<path d="M50.2286 93.2565C50.073 93.451 49.0388 92.6966 47.6157 92.7588C46.1926 92.8211 45.1816 93.622 45.0183 93.4432C44.855 93.2643 45.0883 93.0233 45.5316 92.6655C46.1134 92.1852 46.8382 91.9117 47.5923 91.8879C48.3428 91.8584 49.0817 92.08 49.692 92.5178C50.1353 92.8366 50.2986 93.1632 50.2286 93.2565Z" fill="#263238"/>
<path d="M54.6844 101.632C55.3123 101.376 55.9712 101.203 56.6441 101.119C56.9474 101.064 57.2429 100.979 57.274 100.761C57.278 100.436 57.1801 100.118 56.994 99.851C56.6441 99.12 56.2786 98.3501 55.8897 97.5181C54.3344 94.2286 53.2068 91.5224 53.339 91.4602C53.4713 91.3979 54.8321 94.0109 56.3719 97.2925C56.7452 98.1091 57.1029 98.8478 57.4373 99.6255C57.6647 99.9863 57.7557 100.417 57.6939 100.839C57.6583 100.952 57.597 101.056 57.5147 101.143C57.4325 101.229 57.3315 101.295 57.2195 101.336C57.051 101.394 56.876 101.431 56.6985 101.445C56.0369 101.587 55.3608 101.649 54.6844 101.632V101.632Z" fill="#263238"/>
<path d="M56.6363 116.026C52.4719 116.409 48.2831 115.628 44.5361 113.771C44.5361 113.771 47.9966 119.759 56.7919 118.25L56.6363 116.026Z" fill="#FF9A6C"/>
<path d="M50.9595 105.194C51.0983 104.886 51.3122 104.619 51.5817 104.416C51.9114 104.259 52.2858 104.223 52.6393 104.315C53.1645 104.391 53.6504 104.637 54.0235 105.015C54.2066 105.205 54.3355 105.441 54.3971 105.698C54.4586 105.955 54.4504 106.224 54.3734 106.477V106.477C54.2334 106.99 53.4714 107.254 52.9503 107.363C52.4106 107.442 51.8602 107.329 51.395 107.044C51.1927 106.952 51.016 106.812 50.8804 106.636C50.7449 106.459 50.6545 106.253 50.6174 106.033C50.6519 105.727 50.7703 105.437 50.9595 105.194V105.194Z" fill="#FF9A6C"/>
<path d="M51.2082 103.475C51.4027 103.475 51.5115 104.774 52.7169 105.629C53.9222 106.484 55.322 106.228 55.3453 106.407C55.3687 106.585 55.0576 106.687 54.4588 106.749C53.6819 106.82 52.9048 106.613 52.2658 106.166C51.6493 105.74 51.2248 105.089 51.0838 104.354C51.0061 103.817 51.1149 103.475 51.2082 103.475Z" fill="#263238"/>
<path d="M50.1197 88.474C50.0186 88.8084 48.7899 88.7462 47.3668 89.0339C45.9437 89.3216 44.8161 89.8115 44.6061 89.5082C44.5128 89.376 44.6839 89.0494 45.1272 88.6917C45.7209 88.2493 46.4083 87.9492 47.1363 87.8143C47.8644 87.6795 48.6137 87.7136 49.3265 87.9141C49.8708 88.0696 50.1586 88.3107 50.1197 88.474Z" fill="#263238"/>
<path d="M61.3488 87.813C61.1233 88.1085 60.1435 87.8985 59.0159 87.9763C57.8883 88.0541 56.8929 88.3262 56.644 88.0541C56.5352 87.9219 56.644 87.6264 57.0718 87.3308C57.6341 86.9602 58.2883 86.753 58.9614 86.7321C59.6304 86.6839 60.2992 86.8268 60.89 87.1442C61.2944 87.3775 61.4499 87.6575 61.3488 87.813Z" fill="#263238"/>
<path d="M33.0191 84.0336C33.7967 82.7738 35.3054 82.1284 36.7051 81.5918C42.7504 79.2575 49.0524 77.652 55.4776 76.8092C56.2553 78.1234 55.5398 79.9198 54.3345 80.8763C53.1291 81.8328 51.5738 82.2139 50.1352 82.7505C48.6965 83.2871 47.2112 84.1269 46.6124 85.55C46.0136 86.9731 46.5191 88.8473 45.9592 90.387C45.0027 93.0466 41.2933 93.902 40.3679 96.5538C39.6524 98.5679 40.8189 100.706 41.1455 102.822C41.2949 103.895 41.2135 104.988 40.9069 106.028C40.6003 107.067 40.0754 108.03 39.3674 108.85C38.6594 109.671 37.7845 110.331 36.801 110.787C35.8176 111.242 34.7483 111.483 33.6645 111.492C33.229 103.877 32.791 96.266 32.3503 88.6606C32.2181 87.0742 32.1559 85.3634 33.0191 84.0336Z" fill="#263238"/>
<path d="M17.6838 103.265C18.8891 102.184 20.3978 101.251 20.8721 99.7111C21.572 97.4636 19.7679 94.8274 20.9344 92.7822C21.992 90.9158 25.1103 91.0169 26.098 89.1117C26.8756 87.6186 25.9813 86.3043 26.269 84.9979C26.5568 83.6914 28.4231 82.5483 29.7451 82.7038L40.119 97.7669C41.0833 102.822 42.0554 105.543 40.9744 108.467C40.2595 110.042 39.7197 111.69 39.3647 113.382C39.1314 115.093 39.5747 117.029 40.9666 118.048C34.7454 118.538 28.9286 115.287 23.5473 112.138L17.8782 108.81C17.2576 108.513 16.7225 108.063 16.3229 107.503C15.4752 106.119 16.4862 104.338 17.6838 103.265Z" fill="#263238"/>
<path d="M23.4152 110.606C23.6322 110.676 23.8567 110.72 24.0839 110.738C24.7327 110.8 25.3872 110.753 26.0203 110.598C27.0308 110.356 27.9609 109.855 28.7187 109.144C29.7198 108.181 30.3478 106.894 30.4918 105.512C30.5853 104.711 30.5165 103.899 30.2896 103.125C30.0108 102.3 29.6237 101.515 29.1387 100.792C28.6244 100.058 28.2233 99.2503 27.9489 98.3968C27.8031 97.9605 27.7575 97.4969 27.8154 97.0406C27.8733 96.5842 28.0332 96.1467 28.2833 95.7606C28.8432 94.9829 29.893 94.8196 30.8728 94.4308C31.402 94.2406 31.8624 93.8967 32.1948 93.4432C32.501 92.9582 32.6503 92.3907 32.6226 91.8179C32.4881 90.7198 32.2511 89.6368 31.9149 88.5829C31.7955 88.0713 31.7955 87.5391 31.9149 87.0276C32.0518 86.5117 32.3691 86.062 32.8092 85.76C33.7554 85.2144 34.8276 84.925 35.9198 84.9201C37.0502 84.8828 38.1526 84.559 39.1237 83.9792C40.0687 83.4032 40.8357 82.5769 41.34 81.5918C41.7539 80.6459 42.0164 79.6408 42.1177 78.6134C42.2256 77.6622 42.4288 76.7243 42.7242 75.8138C43.0518 74.9858 43.5499 74.236 44.1862 73.6131C45.3599 72.4993 46.8752 71.8143 48.4866 71.6689C49.8302 71.5541 51.1788 71.8238 52.3749 72.4466C53.2745 72.9069 54.0854 73.523 54.7701 74.2663C55.3422 74.9151 55.838 75.6274 56.2476 76.3893C56.2476 76.3893 56.2476 76.3349 56.1932 76.226C56.1293 76.0716 56.0566 75.921 55.9754 75.7749C55.6785 75.2104 55.3156 74.6831 54.8945 74.2041C54.2104 73.4309 53.3941 72.7858 52.4838 72.2988C51.2751 71.6345 49.9017 71.3296 48.5255 71.4201C46.8367 71.5438 45.2416 72.2438 44.0074 73.4031C43.3273 74.06 42.7968 74.8557 42.4521 75.7361C42.1437 76.6634 41.9301 77.6196 41.8144 78.59C41.7065 79.5838 41.4441 80.5546 41.0367 81.4673C40.5625 82.3852 39.8475 83.1568 38.9682 83.6992C38.0416 84.2427 36.9935 84.5449 35.9198 84.578C34.7496 84.5755 33.6002 84.887 32.5914 85.48C32.0868 85.8234 31.7224 86.3367 31.5649 86.9265C31.4287 87.5017 31.4287 88.1009 31.5649 88.6762C31.8943 89.7103 32.1285 90.7723 32.2648 91.849C32.2969 92.3491 32.1718 92.8466 31.9071 93.2721C31.6067 93.6666 31.1991 93.9663 30.7329 94.1353C30.274 94.3297 29.7764 94.4619 29.2942 94.6641C28.7922 94.8536 28.3494 95.1729 28.0111 95.5895C27.7364 96.0189 27.5605 96.5039 27.4959 97.0095C27.4314 97.5152 27.4798 98.0288 27.6378 98.5135C27.929 99.3943 28.3482 100.228 28.8821 100.986C29.3557 101.674 29.735 102.422 30.0096 103.21C30.23 103.946 30.304 104.717 30.2274 105.481C30.0999 106.811 29.5112 108.055 28.5632 108.996C27.8376 109.699 26.943 110.202 25.9659 110.458C25.1337 110.675 24.2668 110.726 23.4152 110.606V110.606Z" fill="#455A64"/>
<path d="M15.1252 99.8977C15.0235 100.05 14.9546 100.222 14.923 100.403C14.8196 100.937 14.9136 101.489 15.1874 101.958C15.3772 102.293 15.6437 102.579 15.9651 102.791C16.3657 103.033 16.8267 103.157 17.2949 103.148C17.8638 103.136 18.4183 102.968 18.8982 102.662C19.3781 102.356 19.765 101.924 20.0166 101.414C20.3124 100.828 20.4644 100.181 20.4599 99.5244C20.4411 98.8193 20.2935 98.1235 20.0244 97.4714C19.5345 96.1261 18.6324 94.8118 18.6169 93.241C18.5875 92.8542 18.6364 92.4655 18.7606 92.098C18.8849 91.7306 19.082 91.392 19.3401 91.1025C19.9706 90.5818 20.7808 90.3304 21.5953 90.4026C22.5017 90.4688 23.4126 90.374 24.2859 90.1226C24.7436 89.9363 25.1302 89.6096 25.3902 89.1894C25.6405 88.7719 25.7971 88.3048 25.849 87.8208C25.8938 86.8921 25.818 85.9615 25.6235 85.0523C25.4843 84.199 25.5347 83.3255 25.7713 82.4939C26.212 80.9064 27.2446 79.5482 28.6563 78.6989C29.9965 78.0163 31.4842 77.6744 32.9879 77.7035C34.3242 77.7066 35.6525 77.4966 36.9228 77.0814C37.9555 76.7024 38.9021 76.1207 39.7068 75.3706C40.323 74.8013 40.8476 74.1403 41.2621 73.4109C41.6268 72.8059 41.8773 72.139 42.0008 71.4434C41.7693 72.1 41.4805 72.735 41.1376 73.3409C40.1579 74.976 38.6488 76.2271 36.8606 76.887C35.601 77.2723 34.2895 77.4612 32.9723 77.4469C31.4249 77.4033 29.8909 77.7454 28.5086 78.4423C27.024 79.3129 25.928 80.7177 25.4446 82.3694C25.1958 83.2465 25.1401 84.1672 25.2813 85.0679C25.4634 85.9473 25.5391 86.8455 25.5069 87.743C25.4885 88.1697 25.3533 88.5832 25.116 88.9383C24.8788 89.2935 24.5487 89.5767 24.1615 89.7571C23.3305 89.993 22.4643 90.0799 21.6031 90.0137C20.7011 89.9349 19.8044 90.2142 19.1068 90.7914C18.8219 91.1157 18.6061 91.4947 18.4724 91.9051C18.3387 92.3155 18.29 92.7489 18.3291 93.1788C18.3635 93.9861 18.5564 94.7789 18.8968 95.5117C19.2001 96.2116 19.5345 96.8648 19.7911 97.5181C20.0521 98.1374 20.1996 98.7985 20.2266 99.47C20.2372 100.083 20.1041 100.69 19.8378 101.243C19.6121 101.72 19.2601 102.125 18.82 102.416C18.3799 102.707 17.8686 102.871 17.3415 102.892C16.9092 102.907 16.4811 102.802 16.1051 102.588C15.7831 102.401 15.5153 102.133 15.3274 101.811C15.0548 101.378 14.942 100.864 15.0086 100.357C15.0475 100.077 15.1485 99.9055 15.1252 99.8977Z" fill="#263238"/>
<path d="M80.6268 103.607C80.8118 104.133 80.8118 104.706 80.6268 105.232C80.5242 105.534 80.3548 105.809 80.1313 106.037C79.9078 106.264 79.636 106.439 79.3359 106.547C78.9358 106.665 78.5107 106.669 78.1083 106.559C77.7059 106.449 77.342 106.229 77.0574 105.924C76.7308 105.565 76.5408 105.103 76.5208 104.618C76.5059 104.089 76.5875 103.562 76.7619 103.063C77.0885 102.013 77.765 100.87 77.6639 99.4933C77.6148 98.7954 77.4207 98.1155 77.094 97.4969C76.7673 96.8783 76.3151 96.3346 75.7665 95.9005C75.1919 95.4406 74.5346 95.0948 73.8301 94.8818C73.1104 94.6824 72.3683 94.5752 71.6216 94.563C70.898 94.557 70.1767 94.4815 69.4675 94.3375C68.8055 94.201 68.2132 93.8346 67.7955 93.3032C67.4257 92.7578 67.218 92.1188 67.1968 91.4602C67.1622 90.8184 67.2145 90.1749 67.3523 89.5471C67.6936 88.3629 67.8818 87.1398 67.9122 85.9077C67.8496 84.8138 67.4624 83.7634 66.8002 82.8904C66.2401 82.1977 65.5541 81.6173 64.7783 81.1796C64.2114 80.8441 63.6684 80.47 63.153 80.0598C62.7303 79.6979 62.3863 79.2533 62.142 78.7533C62.142 78.7533 62.142 78.7533 62.142 78.8622C62.1727 78.9674 62.2144 79.0691 62.2665 79.1655C62.4604 79.5435 62.7243 79.8813 63.0441 80.1609C63.5482 80.5997 64.0865 80.9976 64.6538 81.3507C65.3957 81.792 66.0496 82.3668 66.5824 83.046C67.1988 83.8828 67.5509 84.8848 67.5934 85.9233C67.5472 87.1275 67.3513 88.3213 67.0101 89.4772C66.8597 90.1347 66.7995 90.8097 66.8313 91.4835C66.8603 92.2092 67.0919 92.9123 67.5001 93.5132C67.9636 94.1131 68.6249 94.5291 69.3664 94.6874C70.096 94.8372 70.838 94.9179 71.5827 94.9285C72.3025 94.9379 73.0183 95.0372 73.7135 95.224C74.3733 95.4291 74.9901 95.7533 75.5332 96.1805C76.0443 96.5835 76.4664 97.0879 76.7729 97.6621C77.0794 98.2363 77.2636 98.8677 77.314 99.5166C77.4229 100.769 76.8007 101.85 76.4586 102.977C76.2789 103.518 76.1998 104.087 76.2253 104.657C76.2591 105.2 76.482 105.715 76.8552 106.111C77.1746 106.446 77.5818 106.684 78.0301 106.798C78.4784 106.912 78.9498 106.898 79.3903 106.757C79.7122 106.632 80.0013 106.435 80.2358 106.182C80.4702 105.929 80.6439 105.625 80.7434 105.295C80.8844 104.889 80.906 104.452 80.8057 104.035C80.7719 103.883 80.7113 103.738 80.6268 103.607Z" fill="#263238"/>
<path d="M73.1926 164.52V155.92C74.1569 151.09 73.6981 145.367 71.4506 140.958C69.8202 138.116 68.0179 135.376 66.0538 132.753L57.4996 121.641C52.787 125.07 45.4071 122.59 39.077 120.288C39.077 120.288 32.8558 123.748 29.9163 126.999C26.8601 130.42 37.3118 173.23 37.3118 173.23C32.5759 182.702 26.4635 191.116 25.5381 199.748L74.9967 201.653L72.8971 178.977L73.1926 164.52Z" fill="#455A64"/>
<path d="M72.5082 179.218C72.459 178.897 72.446 178.57 72.4693 178.246C72.4693 177.538 72.4693 176.691 72.4693 175.61C72.5082 173.277 72.5548 170.267 72.6093 166.916C72.6637 163.564 72.7648 160.446 72.8737 158.222C72.9281 157.109 72.9825 156.207 73.0292 155.585C73.0346 155.263 73.0763 154.942 73.1536 154.629C73.1851 154.949 73.1851 155.272 73.1536 155.593C73.1536 156.301 73.1536 157.148 73.1536 158.229C73.1147 160.562 73.0603 163.572 73.0059 166.923C72.9514 170.275 72.8581 173.393 72.7492 175.618C72.6948 176.73 72.6404 177.632 72.5859 178.254C72.5981 178.577 72.572 178.901 72.5082 179.218Z" fill="#263238"/>
<path d="M95.099 187.041C95.099 187.041 99.9205 187.306 102.876 189.172C105.831 191.038 110.652 193.947 112.635 197.547C113.545 199.204 110.955 199.554 109.672 198.597C108.389 197.641 106.437 195.821 105.465 195.603L104.493 195.378C105.381 197.386 106.369 199.348 107.456 201.257C108.459 202.812 109.33 205.394 106.313 205.51C106.313 205.51 104.283 208.154 102.23 206.195C102.23 206.195 100.628 208.598 98.0463 205.269C98.0463 205.269 96.5377 207.175 95.9156 206.444C95.2935 205.713 93.2327 204.562 92.6339 202.182C91.7354 199.412 90.6972 196.689 89.5233 194.025L95.099 187.041Z" fill="#FFBF9D"/>
<path d="M203.045 120.21C203.581 120.21 225.659 117.877 225.659 117.877C225.659 117.877 227.533 108.903 227.432 106.57C227.331 104.237 225.76 88.8006 225.76 88.8006L234.026 84.9124C234.026 84.9124 245.077 122.177 242.666 125.272C240.255 128.367 235.721 131.144 235.333 131.159C234.944 131.175 213.94 140.491 199.327 135.646C184.715 130.802 203.045 120.21 203.045 120.21Z" fill="#FFBF9D"/>
<path d="M183.697 140.328C186.947 143.555 192.546 146.238 201.894 143.905C220.371 139.286 234.221 135.351 239.726 132.396C245.232 129.441 243.086 116.236 243.553 115.637C244.945 113.833 243.413 109.96 241.43 109.354C235.776 107.643 225.939 108.32 225.441 108.833C222.54 111.881 225.184 115.583 225.184 115.583L200.821 118.779C197.825 118.639 194.823 118.829 191.87 119.347" fill="#455A64"/>
<path d="M191.87 119.347L192.453 119.222C192.842 119.152 193.417 119.051 194.179 118.958C196.384 118.68 198.608 118.587 200.828 118.678V118.678L225.184 115.412L225.068 115.684C224.268 114.507 223.874 113.1 223.948 111.679C224.014 110.944 224.254 110.235 224.648 109.611C224.846 109.297 225.069 109 225.317 108.724C225.414 108.652 225.521 108.594 225.635 108.553L225.915 108.483C226.102 108.436 226.281 108.421 226.46 108.382C229.477 108.034 232.521 107.971 235.55 108.195C237.141 108.292 238.722 108.511 240.279 108.848C240.667 108.934 241.056 109.051 241.461 109.152C241.875 109.284 242.255 109.507 242.573 109.805C243.191 110.392 243.662 111.117 243.949 111.92C244.258 112.725 244.367 113.592 244.268 114.448C244.197 114.893 244.03 115.317 243.778 115.692C243.708 115.77 243.716 115.98 243.708 116.182V116.804C243.762 118.476 243.84 120.179 243.794 121.89C243.806 124.318 243.409 126.732 242.619 129.028C242.214 130.179 241.517 131.205 240.597 132.007C240.121 132.379 239.598 132.688 239.042 132.925C238.529 133.197 237.985 133.407 237.487 133.656C235.356 134.565 233.218 135.312 231.11 135.988C229.003 136.665 226.934 137.318 224.889 137.917C216.755 140.25 209.336 142.14 203.161 143.687C201.686 144.077 200.191 144.386 198.682 144.613C197.33 144.801 195.964 144.874 194.599 144.83C192.407 144.783 190.244 144.313 188.23 143.446C186.967 142.889 185.789 142.156 184.731 141.269C184.358 140.967 184.01 140.637 183.689 140.281C183.689 140.281 184.047 140.623 184.785 141.207C185.857 142.061 187.04 142.768 188.3 143.306C190.302 144.132 192.442 144.573 194.607 144.605C195.957 144.637 197.307 144.554 198.643 144.356C200.142 144.12 201.627 143.803 203.091 143.407C209.313 141.852 216.669 139.939 224.78 137.559C226.81 136.961 228.878 136.323 231.001 135.623C233.124 134.923 235.232 134.184 237.339 133.29C237.852 133.049 238.389 132.839 238.894 132.567C239.414 132.338 239.902 132.046 240.349 131.696C241.217 130.942 241.873 129.974 242.254 128.889C243.02 126.622 243.401 124.243 243.381 121.851C243.428 120.148 243.381 118.46 243.296 116.78V116.143C243.296 116.034 243.296 115.925 243.296 115.808C243.29 115.746 243.29 115.684 243.296 115.622C243.313 115.574 243.334 115.527 243.358 115.482L243.397 115.42C243.616 115.101 243.759 114.737 243.817 114.354C243.908 113.563 243.804 112.762 243.514 112.021C243.253 111.279 242.821 110.607 242.254 110.062C241.978 109.803 241.649 109.609 241.29 109.494C240.901 109.393 240.512 109.284 240.131 109.191C238.594 108.857 237.034 108.642 235.465 108.545C232.467 108.316 229.454 108.373 226.468 108.716C226.289 108.716 226.11 108.763 225.939 108.81L225.69 108.864C225.636 108.885 225.584 108.911 225.534 108.942C225.3 109.197 225.089 109.473 224.904 109.766C224.534 110.338 224.31 110.992 224.251 111.671C224.184 113.008 224.549 114.331 225.293 115.443L225.449 115.684H225.177L200.805 118.795C198.598 118.683 196.385 118.745 194.187 118.981C193.41 119.059 192.842 119.145 192.453 119.199C192.064 119.253 191.87 119.347 191.87 119.347Z" fill="#263238"/>
<path d="M125.904 144.673L115.98 126.843L303.682 22.3697C305.845 21.166 308.397 20.8707 310.777 21.5487C313.158 22.2268 315.171 23.8226 316.375 25.9851L317.226 27.514C318.429 29.6765 318.725 32.2287 318.047 34.6089C317.369 36.9892 315.773 39.0026 313.61 40.2063L125.908 144.68L125.904 144.673Z" fill="#029491"/>
<path d="M283.301 50.3786L260.318 9.08603C260.207 8.88615 260.136 8.66632 260.11 8.43908C260.083 8.21184 260.102 7.98165 260.165 7.76164C260.227 7.54164 260.333 7.33614 260.475 7.15687C260.617 6.97759 260.793 6.82807 260.993 6.71682L271.539 0.847165C271.738 0.735913 271.958 0.665113 272.186 0.638821C272.413 0.612528 272.643 0.631248 272.863 0.693917C273.083 0.756586 273.288 0.861982 273.468 1.00407C273.647 1.14616 273.797 1.32217 273.908 1.52205L296.891 42.8147L283.301 50.3786V50.3786Z" fill="#029491"/>
<path d="M238.08 31.1506L254.831 61.2452C255.507 62.4611 257.042 62.8981 258.258 62.2214L267.444 57.1081C268.66 56.4314 269.097 54.8971 268.42 53.6812L251.67 23.5866C250.993 22.3707 249.459 21.9337 248.243 22.6104L239.056 27.7237C237.841 28.4004 237.403 29.9347 238.08 31.1506Z" fill="#029491"/>
<path d="M252.877 29.3931L263.247 48.0247L284.352 36.2778L273.982 17.6462L252.877 29.3931Z" fill="#029491"/>
<path d="M300.935 23.9367C300.99 24.03 264.152 44.6378 218.675 69.9581C173.198 95.2784 136.244 115.731 136.244 115.63C136.244 115.528 173.02 94.9285 218.512 69.6004C264.005 44.2723 300.881 23.8356 300.935 23.9367Z" fill="#263238"/>
<path d="M49.8863 179.117C63.7285 204.002 92.9137 214.111 115.077 201.786C137.24 189.46 144.005 159.287 130.163 134.433C116.321 109.579 87.1436 99.4389 64.9727 111.765C42.8019 124.09 36.0519 154.263 49.8863 179.117ZM118.156 141.121C127.854 158.54 123.118 179.669 107.58 188.309C92.0428 196.949 71.5983 189.864 61.901 172.429C52.2037 154.994 56.9396 133.881 72.4693 125.234C87.999 116.586 108.459 123.702 118.156 141.121V141.121Z" fill="#029491"/>
<path d="M147.577 109.042L157.818 127.443C159.18 129.889 162.268 130.769 164.714 129.407L165.543 128.946C167.99 127.584 168.87 124.496 167.508 122.049L157.266 103.649C155.904 101.202 152.817 100.323 150.37 101.684L149.541 102.146C147.094 103.508 146.215 106.595 147.577 109.042Z" fill="#029491"/>
<path d="M167.246 98.0858L177.487 116.486C178.849 118.933 181.937 119.813 184.383 118.451L185.212 117.989C187.659 116.628 188.539 113.54 187.177 111.093L176.935 92.6927C175.573 90.2459 172.486 89.3664 170.039 90.7283L169.21 91.1897C166.763 92.5515 165.884 95.639 167.246 98.0858Z" fill="#029491"/>
<path d="M157.047 103.366C157.148 103.312 159.52 107.488 162.358 112.698C165.196 117.908 167.413 122.154 167.312 122.209C167.211 122.263 164.839 118.095 162 112.877C159.162 107.659 156.946 103.366 157.047 103.366Z" fill="#263238"/>
<path d="M148.018 109.782C148.119 109.727 150.437 113.717 153.205 118.678C155.974 123.639 158.128 127.722 158.034 127.776C157.941 127.831 155.616 123.842 152.878 118.919C150.141 113.996 147.925 109.836 148.018 109.782Z" fill="#263238"/>
<path d="M176.838 92.5333C176.939 92.4789 179.358 96.6316 182.243 101.811C185.128 106.99 187.383 111.244 187.282 111.298C187.181 111.352 184.77 107.192 181.885 102.013C179 96.8337 176.745 92.5878 176.838 92.5333Z" fill="#263238"/>
<path d="M167.343 98.2646C167.436 98.2102 169.808 102.34 172.623 107.488C175.438 112.636 177.654 116.819 177.553 116.905C177.452 116.99 175.096 112.83 172.273 107.682C169.45 102.534 167.242 98.3191 167.343 98.2646Z" fill="#263238"/>
<path d="M223.746 70.2147C224.651 70.3214 225.564 70.0872 226.306 69.5577C227.049 69.0283 227.567 68.2416 227.761 67.3508C227.955 66.4599 227.811 65.5287 227.356 64.7385C226.902 63.9483 226.169 63.3556 225.301 63.0759C225.862 62.5016 226.228 61.7653 226.347 60.9715C226.467 60.1776 226.333 59.3663 225.966 58.6524C225.599 57.9386 225.016 57.3583 224.301 56.9938C223.586 56.6293 222.774 56.499 221.981 56.6214C221.948 55.8318 221.712 55.0641 221.294 54.3929C220.877 53.7217 220.293 53.1699 219.6 52.791C218.906 52.4122 218.127 52.2192 217.336 52.2308C216.546 52.2425 215.773 52.4584 215.091 52.8576C214.201 52.1305 213.094 51.7217 211.946 51.6963C210.797 51.671 209.673 52.0305 208.753 52.7176C207.979 52.5699 207.179 52.6755 206.47 53.0186C205.761 53.3617 205.182 53.9241 204.818 54.6224C204.454 55.3206 204.325 56.1176 204.449 56.8951C204.574 57.6726 204.946 58.3893 205.51 58.9388" fill="#263238"/>
<path d="M207.967 56.3414H208.745C212.666 56.3447 216.442 57.8245 219.321 60.4861C222.2 63.1477 223.972 66.796 224.282 70.7047C224.866 78.2401 225.41 86.5687 225.348 90.6125C225.2 99.0112 216.848 100.255 216.848 100.255L217.525 110.318L197.205 109.657L195.517 73.1854C194.802 64.4835 199.258 56.8236 207.967 56.3414Z" fill="#FFBF9D"/>
<path d="M216.918 100.255C213.031 100.245 209.228 99.1194 205.961 97.0126C205.961 97.0126 208.652 103.35 217.004 102.619L216.918 100.255Z" fill="#FF9A6C"/>
<path d="M219.686 78.5978C219.689 78.9094 219.568 79.2094 219.352 79.4333C219.135 79.6573 218.839 79.7873 218.528 79.7954C218.376 79.8059 218.223 79.7863 218.079 79.7375C217.935 79.6888 217.802 79.6119 217.688 79.5114C217.573 79.4108 217.48 79.2886 217.414 79.1518C217.347 79.0151 217.308 78.8664 217.299 78.7145C217.299 78.4027 217.419 78.103 217.635 77.8782C217.851 77.6535 218.146 77.5212 218.458 77.5091C218.61 77.4986 218.763 77.5185 218.908 77.5677C219.052 77.617 219.186 77.6945 219.3 77.7959C219.415 77.8972 219.508 78.0203 219.574 78.158C219.64 78.2957 219.678 78.4452 219.686 78.5978V78.5978Z" fill="#263238"/>
<path d="M222.47 74.8184C222.323 74.974 221.413 74.3052 220.137 74.3052C218.862 74.3052 217.906 74.9429 217.766 74.7873C217.626 74.6318 217.851 74.4374 218.263 74.1341C218.821 73.7508 219.484 73.5497 220.161 73.5586C220.829 73.5558 221.481 73.7685 222.019 74.1652C222.408 74.4685 222.54 74.7562 222.47 74.8184Z" fill="#263238"/>
<path d="M208.092 78.0379C208.098 78.3542 207.979 78.6602 207.76 78.8889C207.542 79.1177 207.241 79.2507 206.925 79.2588C206.773 79.2694 206.621 79.2497 206.477 79.2009C206.333 79.1522 206.2 79.0753 206.085 78.9748C205.971 78.8743 205.878 78.7521 205.811 78.6153C205.744 78.4785 205.705 78.3298 205.697 78.1779C205.694 77.8656 205.814 77.5647 206.031 77.3395C206.247 77.1144 206.543 76.9827 206.855 76.9725C207.006 76.9609 207.158 76.9792 207.303 77.0265C207.447 77.0738 207.58 77.1491 207.695 77.2481C207.81 77.3471 207.904 77.4679 207.972 77.6034C208.04 77.739 208.081 77.8866 208.092 78.0379V78.0379Z" fill="#263238"/>
<path d="M209.826 75.0206C209.678 75.1762 208.768 74.5074 207.493 74.5074C206.218 74.5074 205.261 75.1451 205.121 74.9895C204.981 74.834 205.207 74.6396 205.619 74.3363C206.177 73.953 206.839 73.7519 207.516 73.7608C208.185 73.758 208.837 73.9707 209.375 74.3674C209.764 74.6707 209.896 74.9507 209.826 75.0206Z" fill="#263238"/>
<path d="M214.461 84.5779C215.139 84.3646 215.842 84.2392 216.553 84.2047C216.879 84.2047 217.19 84.1114 217.252 83.8858C217.28 83.5472 217.204 83.2083 217.035 82.9138L216.07 80.4097C214.733 76.8403 213.737 73.9086 213.909 73.8619C214.08 73.8153 215.254 76.6537 216.591 80.2153C216.91 81.0941 217.221 81.9339 217.517 82.7349C217.719 83.1335 217.776 83.5896 217.68 84.0258C217.631 84.141 217.557 84.2436 217.463 84.3258C217.368 84.408 217.257 84.4676 217.136 84.5002C216.957 84.5534 216.771 84.5796 216.584 84.5779C215.879 84.6661 215.166 84.6661 214.461 84.5779Z" fill="#263238"/>
<path d="M210.953 70.0748C210.782 70.4014 209.686 70.0748 208.325 69.997C206.964 69.9192 205.829 70.1758 205.704 69.8337C205.65 69.6704 205.891 69.3826 206.381 69.1182C207.013 68.806 207.714 68.6614 208.418 68.6983C209.116 68.723 209.795 68.9323 210.386 69.3049C210.829 69.6082 211.031 69.927 210.953 70.0748Z" fill="#263238"/>
<path d="M222.548 69.5226C222.276 69.8104 221.211 69.5226 219.935 69.5226C218.66 69.5226 217.602 69.7171 217.33 69.406C217.221 69.2582 217.392 68.9627 217.867 68.6906C218.52 68.348 219.253 68.1844 219.99 68.2162C220.723 68.2261 221.44 68.4329 222.066 68.815C222.517 69.0794 222.665 69.3749 222.548 69.5226Z" fill="#263238"/>
<path d="M223.489 66.8942C223.489 66.8942 221.296 61.645 218.769 60.4163C215.713 58.9232 214.391 62.2749 211.475 61.4506C208.558 60.6263 205.642 59.2032 202.656 61.4506C199.39 63.908 200.914 65.6421 200.696 69.3593C199.841 84.4146 197.072 88.6606 196.318 81.5684C196.233 80.7908 194.078 80.1687 193.767 76.9025C193.363 72.6488 193.215 67.4774 194.18 64.4601C194.957 61.9172 196.443 60.1597 199.048 58.2389C203.169 55.1905 208.815 55.1283 212.649 55.5405C216.483 55.9526 223.855 60.3308 223.489 66.8942Z" fill="#263238"/>
<path d="M196.847 81.3351C196.838 81.0279 196.767 80.7256 196.639 80.4466C196.51 80.1676 196.326 79.9176 196.097 79.7118C195.869 79.5061 195.601 79.3488 195.31 79.2495C195.02 79.1503 194.712 79.1111 194.405 79.1344C192.85 79.2821 191.1 80.1609 191.193 83.3881C191.357 89.1116 197.072 87.7663 197.08 87.5952C197.088 87.4241 196.94 83.7303 196.847 81.3351Z" fill="#FFBF9D"/>
<path d="M195.766 85.48C195.766 85.48 195.673 85.5578 195.502 85.6355C195.269 85.7422 195.005 85.7561 194.763 85.6744C194.385 85.451 194.074 85.1305 193.862 84.7462C193.65 84.3619 193.545 83.9279 193.557 83.4892C193.528 83.0008 193.607 82.512 193.791 82.0584C193.84 81.8791 193.932 81.7145 194.06 81.579C194.187 81.4435 194.346 81.3411 194.522 81.2807C194.636 81.246 194.758 81.2527 194.868 81.2997C194.977 81.3466 195.067 81.4308 195.12 81.5373C195.198 81.6929 195.167 81.8095 195.198 81.8173C195.229 81.8251 195.315 81.7162 195.26 81.4829C195.23 81.341 195.146 81.216 195.027 81.133C194.949 81.0752 194.859 81.0338 194.764 81.0111C194.67 80.9884 194.571 80.9849 194.475 81.0008C194.241 81.0535 194.024 81.1656 193.846 81.3263C193.667 81.487 193.533 81.6909 193.456 81.9184C193.225 82.4194 193.121 82.9695 193.153 83.5203C193.223 84.6713 193.845 85.7366 194.708 85.9544C194.862 85.995 195.024 86 195.18 85.969C195.336 85.938 195.483 85.8718 195.61 85.7755C195.766 85.62 195.789 85.48 195.766 85.48Z" fill="#FF9A6C"/>
<path d="M196.995 70.2459C197.695 70.8166 198.526 71.2041 199.413 71.3734C199.859 71.4433 200.314 71.3494 200.696 71.1093C201.078 70.8691 201.36 70.4989 201.489 70.067C201.559 69.6704 201.489 69.2038 201.723 68.9005C201.956 68.5972 202.617 68.6517 203.091 68.7061C204.756 68.885 206.707 67.0497 207.135 65.4322C207.351 65.7424 207.677 65.9585 208.047 66.0366C208.417 66.1146 208.803 66.0486 209.126 65.8521C209.655 65.5289 210.123 65.1157 210.51 64.6312C210.735 64.3227 211.032 64.0732 211.375 63.904C211.717 63.7347 212.096 63.6507 212.478 63.6592C212.88 63.7983 213.298 63.8896 213.722 63.9313C214.499 63.8691 214.842 62.9904 214.958 62.2438C215.075 61.4973 215.168 60.6341 215.806 60.2297C216.46 59.9733 217.184 59.954 217.851 60.1753C218.543 60.2841 219.406 60.1208 219.616 59.4443C219.645 59.2635 219.637 59.0788 219.593 58.9011C219.549 58.7235 219.47 58.5565 219.36 58.41C218.897 57.7164 218.214 57.1992 217.421 56.9424C216.627 56.6855 215.771 56.7039 214.989 56.9947C214.714 56.0376 214.16 55.1841 213.398 54.543C212.636 53.9018 211.701 53.5019 210.711 53.3943C209.721 53.2867 208.721 53.4763 207.839 53.9388C206.957 54.4013 206.233 55.1159 205.759 55.9915C205.153 55.4368 204.422 55.0368 203.628 54.8256C202.835 54.6144 202.002 54.5982 201.201 54.7785C200.399 54.9588 199.653 55.3301 199.027 55.8609C198.4 56.3917 197.911 57.0661 197.601 57.8268C196.901 57.64 196.162 57.6633 195.475 57.8937C194.788 58.1241 194.184 58.5514 193.738 59.1225C193.292 59.6935 193.024 60.3831 192.967 61.1055C192.91 61.8278 193.066 62.5509 193.417 63.1848C192.884 63.448 192.427 63.8422 192.089 64.3305C191.75 64.8189 191.541 65.3853 191.481 65.9765C191.481 67.1586 192.609 68.3095 193.752 68.0295C193.515 68.4953 193.465 69.0342 193.613 69.5355C193.76 70.0368 194.095 70.4626 194.546 70.7253C194.998 70.988 195.533 71.0678 196.042 70.9483C196.551 70.8287 196.995 70.519 197.282 70.0825" fill="#263238"/>
<path d="M215.409 58.6744C215.409 58.6744 215.409 58.6744 215.409 58.7833C215.409 58.8921 215.409 58.9543 215.37 59.0865C215.29 59.4746 215.148 59.8474 214.95 60.1908C214.635 60.729 214.201 61.1888 213.683 61.5361C212.997 62.0036 212.179 62.2356 211.35 62.1972L211.443 62.0727C211.611 62.5862 211.569 63.1454 211.327 63.628C211.07 64.1397 210.74 64.6112 210.347 65.0278C210.156 65.2707 209.94 65.4923 209.701 65.6888C209.278 65.9671 208.77 66.0863 208.267 66.025C207.765 65.9638 207.3 65.7262 206.956 65.3544L207.166 65.2922C207.086 65.8864 206.882 66.4572 206.567 66.9676C206.252 67.478 205.834 67.9166 205.339 68.2551C204.795 68.6593 204.134 68.875 203.457 68.8694C202.821 68.8347 202.196 68.6955 201.606 68.4572L201.761 68.3873C201.462 69.0798 200.994 69.6865 200.401 70.1525C200.13 70.3846 199.81 70.5532 199.466 70.646C199.121 70.7388 198.761 70.7536 198.41 70.6891C197.808 70.5583 197.258 70.2545 196.827 69.8151C196.396 69.3758 196.103 68.82 195.984 68.2162L196.116 68.2784C195.511 68.5918 194.817 68.6905 194.148 68.5583C193.65 68.4634 193.182 68.2529 192.78 67.944C192.53 67.7478 192.314 67.5113 192.142 67.2441C192.079 67.1513 192.032 67.0489 192.002 66.9408C192.219 67.2984 192.501 67.6123 192.834 67.8662C193.23 68.1529 193.689 68.342 194.172 68.4184C194.807 68.5386 195.464 68.4341 196.03 68.1229L196.139 68.0606V68.1851C196.257 68.7471 196.536 69.2626 196.942 69.6686C197.348 70.0747 197.863 70.3536 198.425 70.4714C198.746 70.5274 199.075 70.511 199.389 70.4236C199.702 70.3361 199.992 70.1798 200.237 69.9659C200.794 69.5229 201.233 68.9484 201.513 68.2939L201.559 68.1928H201.668C202.231 68.4192 202.828 68.5506 203.433 68.5817C204.06 68.5867 204.672 68.3874 205.175 68.014C205.641 67.6941 206.035 67.2807 206.333 66.8C206.63 66.3193 206.824 65.782 206.902 65.2222V64.95L207.081 65.16C207.283 65.3834 207.537 65.554 207.82 65.657C208.103 65.76 208.407 65.7923 208.706 65.751C208.984 65.7139 209.251 65.6127 209.484 65.4555C209.709 65.2745 209.912 65.0684 210.09 64.8412C210.475 64.4444 210.8 63.9938 211.054 63.5036C211.169 63.2853 211.239 63.0463 211.26 62.8007C211.282 62.555 211.254 62.3076 211.179 62.0727L211.132 61.9328H211.28C212.074 61.9821 212.863 61.7719 213.527 61.334C214.038 61.0054 214.468 60.567 214.787 60.0508C215.074 59.6324 215.285 59.1664 215.409 58.6744V58.6744Z" fill="#455A64"/>
<path d="M214.445 88.8473C214.398 88.6373 213.006 88.9795 211.715 88.0307C210.425 87.082 210.215 85.5578 210.02 85.5967C209.826 85.6356 209.826 86.0011 209.966 86.631C210.157 87.4528 210.634 88.1802 211.311 88.684C211.958 89.1659 212.766 89.3778 213.566 89.275C214.165 89.1817 214.476 88.9406 214.445 88.8473Z" fill="#263238"/>
<path d="M257.574 306.426L263.095 325.238C263.095 325.238 284.091 325.938 285.437 329.32L249.307 341.327L239.493 312.36L257.574 306.426Z" fill="#455A64"/>
<path d="M251.415 327.392C251.103 327.613 250.884 327.942 250.799 328.315C250.714 328.688 250.77 329.079 250.956 329.414C251.165 329.733 251.489 329.961 251.861 330.049C252.232 330.137 252.624 330.08 252.954 329.888C253.285 329.652 253.516 329.302 253.604 328.906C253.692 328.51 253.629 328.095 253.429 327.742C253.175 327.43 252.811 327.228 252.413 327.179C252.014 327.13 251.612 327.237 251.29 327.477" fill="#E0E0E0"/>
<path d="M283.399 327.959C283.399 327.959 285.242 328.123 285.437 329.32L249.307 341.327L248.436 338.364L283.368 327.944" fill="#263238"/>
<path d="M263.616 324.857C263.67 325.035 262.838 325.409 262.138 326.264C261.438 327.12 261.244 328.014 261.057 327.998C260.871 327.983 260.801 326.878 261.641 325.86C262.481 324.841 263.6 324.686 263.616 324.857Z" fill="white"/>
<path d="M267.924 325.16C268.025 325.323 267.364 325.875 267.007 326.816C266.649 327.757 266.75 328.613 266.571 328.659C266.392 328.706 265.949 327.749 266.408 326.583C266.867 325.417 267.87 324.997 267.924 325.16Z" fill="white"/>
<path d="M271.587 328.978C271.439 329.071 270.903 328.27 271.035 327.158C271.167 326.046 271.859 325.378 271.984 325.502C272.108 325.626 271.766 326.28 271.673 327.228C271.579 328.177 271.758 328.885 271.587 328.978Z" fill="white"/>
<path d="M261.882 320.712C261.882 320.898 260.972 320.922 260 321.318C259.028 321.715 258.351 322.29 258.211 322.174C258.071 322.057 258.608 321.178 259.767 320.719C260.925 320.261 261.928 320.541 261.882 320.712Z" fill="white"/>
<path d="M173.323 306.59L165.461 324.553C165.461 324.553 181.084 338.551 179.956 342.035L144.573 328.037L155.67 299.544L173.323 306.59Z" fill="#455A64"/>
<path d="M155.126 318.698C154.745 318.668 154.367 318.779 154.063 319.009C153.759 319.24 153.55 319.575 153.477 319.95C153.434 320.329 153.537 320.711 153.765 321.017C153.993 321.324 154.33 321.531 154.706 321.598C155.11 321.628 155.511 321.508 155.832 321.262C156.153 321.015 156.372 320.659 156.448 320.261C156.448 319.483 155.74 318.596 154.978 318.705" fill="#E0E0E0"/>
<path d="M179.264 339.686C179.264 339.686 180.571 341.001 179.956 342.019L144.573 328.022L145.81 325.199L179.249 339.663" fill="#263238"/>
<path d="M166.099 324.6C166.029 324.771 165.134 324.507 164.061 324.724C162.988 324.942 162.249 325.502 162.117 325.362C161.985 325.222 162.638 324.336 163.937 324.094C165.235 323.853 166.207 324.452 166.099 324.6Z" fill="white"/>
<path d="M169.209 327.602C169.209 327.781 168.323 327.781 167.444 328.278C166.565 328.776 166.098 329.484 165.889 329.414C165.679 329.344 165.997 328.317 167.094 327.718C168.19 327.12 169.271 327.438 169.209 327.602Z" fill="white"/>
<path d="M169.567 332.874C169.396 332.874 169.497 331.894 170.344 331.124C171.192 330.355 172.117 330.292 172.133 330.463C172.149 330.635 171.449 330.946 170.788 331.591C170.127 332.237 169.746 332.929 169.567 332.874Z" fill="white"/>
<path d="M167.444 320.331C167.312 320.455 166.612 319.911 165.609 319.553C164.605 319.195 163.727 319.242 163.696 319.063C163.664 318.884 164.636 318.55 165.811 318.939C166.985 319.327 167.584 320.206 167.444 320.331Z" fill="white"/>
<path d="M186.566 207.906L174.171 258.189C174.171 258.189 151.813 295.827 148.026 314.662L168.478 322.702C168.478 322.702 183.355 286.425 187.717 279.768C189.68 276.785 191.936 274.005 194.452 271.471C196.087 269.848 197.26 267.819 197.85 265.592L207.236 229.719L186.566 207.906Z" fill="#263238"/>
<path d="M181.286 199.865C181.286 199.865 183.012 213.334 195.976 219.306L223.287 263.788C223.287 263.788 225.426 278.252 229.508 290.438C233.591 302.624 241.842 326.109 241.842 326.109L264.308 317.71L249.992 268.765L247.659 251.788L225.371 195.02L206.225 183.542L181.286 199.865Z" fill="#263238"/>
<path d="M181.286 199.865L181.698 199.585L182.935 198.76L187.787 195.557L206.186 183.464L206.249 183.425L206.311 183.464L225.472 194.919V194.966L247.806 251.68V251.719C248.545 257.084 249.362 262.831 250.139 268.695C254.028 281.915 258.149 296.06 262.411 310.633C263.1 312.982 263.785 315.315 264.464 317.632L264.518 317.811L264.339 317.873L241.873 326.272L241.678 326.342L241.616 326.148C237.728 314.864 233.964 304 230.41 293.696C229.516 291.122 228.637 288.571 227.906 286.021C227.175 283.47 226.514 280.935 225.916 278.431C224.733 273.423 223.785 268.531 223.038 263.788V263.85L195.883 219.353L195.929 219.392C192.645 217.856 189.728 215.634 187.375 212.875C185.651 210.85 184.235 208.58 183.176 206.14C182.52 204.634 182 203.073 181.62 201.474C181.488 200.946 181.411 200.534 181.364 200.254C181.317 199.974 181.309 199.834 181.309 199.834C181.309 199.834 181.309 199.974 181.395 200.246C181.481 200.518 181.527 200.93 181.675 201.467C182.076 203.044 182.612 204.584 183.277 206.07C184.35 208.485 185.77 210.731 187.492 212.735C189.853 215.465 192.769 217.66 196.046 219.174V219.174L223.411 263.624V263.663C224.189 268.391 225.122 273.275 226.304 278.275C226.903 280.772 227.556 283.299 228.295 285.842C229.034 288.385 229.905 290.92 230.799 293.494C234.369 303.798 238.125 314.662 242.028 325.938L241.772 325.821L264.238 317.422L264.114 317.663C263.44 315.346 262.755 313.013 262.061 310.664L249.805 268.718C249.027 262.854 248.203 257.108 247.472 251.742V251.789L225.223 195.02L225.286 195.09L206.155 183.589H206.272L187.873 195.627L182.974 198.784L181.714 199.6L181.286 199.865Z" fill="#455A64"/>
<path d="M193.316 103.77C193.316 103.77 186.768 108.81 183.588 114.44C179.777 121.182 179.365 131.175 179.249 146.697C179.132 161.052 181.278 165.042 180.454 170.454C178.829 181.022 177.623 216.491 177.623 216.491C177.623 216.491 198.62 208.427 202.695 204.826L206.793 201.265L233.07 209.951L227.766 177.663L224.127 137.419L219.461 116.073L218.683 107.698L196.116 98.6301L193.316 103.77Z" fill="#455A64"/>
<path d="M217.836 107.254C218.108 107.309 217.19 109.152 215.573 111.858L215.503 111.967L215.378 111.92C213.1 111.034 210.082 109.922 206.785 108.716C203.068 107.363 199.709 106.103 197.306 105.124C196.1 104.634 195.136 104.221 194.475 103.918C194.124 103.782 193.786 103.616 193.464 103.42C193.833 103.503 194.193 103.623 194.537 103.778L197.407 104.859L206.925 108.335C210.222 109.541 213.232 110.668 215.479 111.632L215.293 111.695C216.988 109.043 217.991 107.293 217.836 107.254Z" fill="#263238"/>
<path d="M244.991 90.4881C244.991 90.4881 243.327 87.8985 241.756 85.5111C240.185 83.1237 237.806 81.9495 237.425 80.7053C237.044 79.461 234.952 73.9164 234.617 72.5399C234.327 71.2069 234.191 69.8447 234.213 68.4806C234.213 68.4806 235.932 67.7496 236.756 70.207C237.254 71.6845 238.84 76.7003 239.182 76.9492C239.524 77.198 239.96 76.8325 239.96 76.8325C239.253 74.9545 238.643 73.0416 238.132 71.1013C238.055 70.1914 238.373 64.1568 238.373 64.1568C238.8 64.0709 239.243 64.1405 239.622 64.3531C240.002 64.5656 240.292 64.9071 240.442 65.3155C241.258 66.8708 241.29 70.7591 241.29 70.7591L242.526 75.0984L242.091 70.8058L242.713 62.9126C243.317 62.9987 243.88 63.2689 244.325 63.6863C244.77 64.1037 245.076 64.6482 245.201 65.2456C245.722 67.3763 245.03 70.3469 245.38 70.9768C245.73 71.6067 246.111 75.4172 246.111 75.4172C246.111 75.4172 246.539 66.1632 247.526 65.8988C248.514 65.6344 249.323 66.6142 249.183 68.4806C249.043 70.3469 249.004 74.2974 249.517 76.0393C250.03 77.7813 255.295 84.5935 254.867 87.5797C254.605 89.3839 254.442 91.2012 254.377 93.0232H245.357L244.991 90.4881Z" fill="#FFBF9D"/>
<path d="M213.349 113.794C213.854 113.989 235.403 119.323 235.403 119.323C235.403 119.323 240.216 111.547 240.924 109.292C241.632 107.037 245.419 92.0123 245.419 92.0123L254.525 91.1569C254.525 91.1569 252.192 129.954 248.895 132.046C245.598 134.138 240.341 135.195 239.999 135.079C239.656 134.962 216.708 136.556 204.616 127.03C192.523 117.504 213.349 113.794 213.349 113.794Z" fill="#FFBF9D"/>
<g opacity="0.3">
<path d="M197.904 134.332C200.217 136.95 203.303 138.764 206.715 139.511C212.431 140.771 224.601 143.003 224.601 143.003L224.01 137.031L197.57 134.2" fill="black"/>
</g>
<path d="M188.308 126.12C190.268 130.257 194.623 134.674 204.196 135.677C223.147 137.637 237.495 138.679 243.692 137.746C249.89 136.813 252.355 123.694 253.024 123.289C254.953 122.076 254.828 117.908 253.164 116.664C248.436 113.126 238.957 110.443 238.319 110.73C234.547 112.605 235.776 116.99 235.776 116.99L211.747 111.687C208.979 110.536 206.091 109.696 203.138 109.183" fill="#455A64"/>
<path d="M203.138 109.183C203.138 109.183 203.34 109.183 203.729 109.261C204.118 109.338 204.701 109.432 205.448 109.595C207.615 110.087 209.737 110.758 211.793 111.601L235.807 116.827L235.605 117.045C235.249 115.667 235.359 114.21 235.916 112.9C236.223 112.229 236.687 111.643 237.269 111.189C237.564 110.959 237.879 110.756 238.21 110.583C238.324 110.549 238.441 110.53 238.56 110.528H238.848C239.042 110.528 239.213 110.59 239.4 110.621C242.355 111.32 245.237 112.297 248.008 113.538C249.469 114.174 250.88 114.917 252.231 115.762C252.566 115.98 252.9 116.221 253.234 116.454C253.58 116.717 253.862 117.054 254.059 117.442C254.438 118.205 254.635 119.046 254.634 119.899C254.654 120.762 254.462 121.616 254.074 122.387C253.859 122.785 253.556 123.128 253.188 123.391C253.094 123.437 253.032 123.639 252.954 123.826L252.752 124.409C252.239 125.965 251.726 127.629 251.104 129.231C250.289 131.528 249.095 133.673 247.573 135.576C247.021 136.3 246.317 136.893 245.511 137.315C244.705 137.737 243.816 137.977 242.907 138.018C242.324 138.104 241.741 138.119 241.165 138.166C238.832 138.306 236.593 138.275 234.376 138.213C232.16 138.15 229.99 138.034 227.883 137.902C219.43 137.357 211.848 136.587 205.486 135.926C203.967 135.793 202.456 135.575 200.961 135.273C199.634 134.989 198.333 134.594 197.072 134.091C195.03 133.298 193.158 132.12 191.559 130.623C190.56 129.667 189.702 128.575 189.008 127.38C188.76 126.97 188.544 126.541 188.363 126.097C188.363 126.097 188.58 126.54 189.078 127.341C189.797 128.507 190.667 129.571 191.668 130.506C193.266 131.971 195.129 133.117 197.158 133.881C198.42 134.368 199.721 134.75 201.046 135.024C202.537 135.31 204.043 135.515 205.556 135.639C211.918 136.268 219.5 137.007 227.937 137.536C230.052 137.66 232.214 137.769 234.423 137.824C236.631 137.878 238.894 137.909 241.181 137.777C241.748 137.723 242.332 137.707 242.899 137.622C243.466 137.592 244.026 137.484 244.563 137.303C245.638 136.888 246.586 136.202 247.316 135.312C248.806 133.445 249.973 131.342 250.769 129.091C251.391 127.535 251.897 125.895 252.41 124.293L252.628 123.686C252.628 123.593 252.705 123.492 252.752 123.383C252.78 123.323 252.814 123.265 252.853 123.212C252.883 123.174 252.917 123.14 252.954 123.111L253.009 123.064C253.331 122.84 253.598 122.545 253.786 122.201C254.15 121.478 254.326 120.676 254.3 119.868C254.302 119.081 254.124 118.304 253.779 117.597C253.609 117.263 253.367 116.971 253.071 116.742C252.737 116.516 252.418 116.275 252.083 116.065C250.752 115.227 249.358 114.491 247.915 113.864C245.175 112.629 242.324 111.655 239.4 110.956C239.221 110.956 239.042 110.878 238.871 110.863H238.614H238.443C238.137 111.026 237.846 111.216 237.572 111.43C237.031 111.839 236.596 112.372 236.305 112.986C235.79 114.216 235.683 115.579 236.002 116.874L236.072 117.146L235.799 117.084L211.824 111.718C209.787 110.861 207.686 110.164 205.541 109.634C204.763 109.455 204.227 109.331 203.838 109.253C203.449 109.175 203.138 109.183 203.138 109.183Z" fill="#263238"/>
<path d="M243.692 124.495C243.14 124.358 242.614 124.129 242.137 123.818C240.945 123.153 239.846 122.332 238.871 121.376C237.891 120.425 237.034 119.353 236.32 118.188C235.996 117.711 235.747 117.186 235.582 116.633C236.647 118.204 237.841 119.684 239.151 121.058C240.559 122.337 242.079 123.487 243.692 124.495V124.495Z" fill="#263238"/>
<path d="M74.5067 188.542C74.5067 188.542 79.3281 188.799 82.2832 190.673C85.2382 192.547 90.0597 195.44 92.0427 199.048C92.9526 200.705 90.363 201.055 89.0876 200.09C87.8123 199.126 85.8448 197.322 84.8728 197.096L83.9007 196.879C84.787 198.885 85.7759 200.845 86.8635 202.75C87.8667 204.305 88.7377 206.887 85.7282 207.011C85.7282 207.011 83.6907 209.655 81.6377 207.696C81.6377 207.696 80.0358 210.091 77.454 206.77C77.454 206.77 75.9531 208.668 75.3232 207.945C74.6933 207.221 72.6403 206.063 72.0415 203.683C71.148 200.911 70.1097 198.188 68.9309 195.525L74.5067 188.542Z" fill="#FFBF9D"/>
<path d="M33.478 125.14C31.0065 125.936 28.8735 127.538 27.4201 129.69C25.5692 132.536 25.0016 137.466 25.5304 141.137C26.6502 148.874 30.1963 161.931 32.1948 170.314C32.8792 173.207 34.2867 178.386 38.416 181.131L67.8812 198.799L75.7588 187.135L48.8988 165.244L43.5874 135.242L33.478 125.14Z" fill="#455A64"/>
<path d="M28.3843 154.629C28.4247 154.727 28.4559 154.828 28.4776 154.932L28.7264 155.842C28.9364 156.666 29.2319 157.848 29.6207 159.365C30.3984 162.475 31.5026 166.892 32.8791 172.39C33.6782 175.385 35.3709 178.065 37.7316 180.074C39.0802 181.153 40.5219 182.111 42.0398 182.935L46.7757 185.797L67.9978 198.613L67.7256 198.675L70.564 194.468L75.6032 186.979L75.6421 187.251L49.0231 165.329H48.9765V165.275C47.219 157.879 45.9436 151.821 45.1349 147.607C44.7383 145.499 44.4583 143.858 44.2794 142.739C44.2017 142.194 44.1395 141.766 44.0928 141.463C44.0462 141.16 44.0384 141.028 44.0384 141.028C44.0806 141.168 44.1144 141.311 44.1395 141.455C44.1939 141.759 44.2717 142.179 44.365 142.723C44.575 143.835 44.8782 145.476 45.3137 147.575C46.1614 151.775 47.4834 157.817 49.2797 165.205L49.2253 165.119L75.891 186.94L76.0309 187.057L75.9298 187.205L70.8907 194.693L68.0522 198.9L67.9511 199.056L67.7801 198.963L46.5891 186.108L41.861 183.239C40.333 182.406 38.881 181.44 37.5217 180.353C35.1201 178.297 33.4074 175.552 32.6147 172.491C31.2849 166.978 30.2195 162.522 29.5041 159.435C29.1541 157.879 28.8742 156.721 28.6798 155.896L28.4542 154.94C28.4237 154.838 28.4003 154.734 28.3843 154.629Z" fill="#263238"/>
<path d="M28.8665 129.285C29.0494 129.165 29.2521 129.078 29.4653 129.028C30.0298 128.854 30.607 128.724 31.1917 128.64C33.1422 128.339 35.1381 128.609 36.9385 129.417C38.6787 130.325 40.1567 131.663 41.2312 133.306C41.5569 133.802 41.8182 134.338 42.0088 134.9C42.0923 135.1 42.1397 135.313 42.1488 135.53C41.8127 134.816 41.4255 134.127 40.9901 133.469C39.8832 131.936 38.4348 130.682 36.7597 129.806C35.0222 129.036 33.1116 128.741 31.2228 128.951C29.7686 129.067 28.8898 129.355 28.8665 129.285Z" fill="#263238"/>
</svg>
